<?xml version="1.0" encoding="UTF-8" standalone="no"?>
<!-- Created with Inkscape (http://www.inkscape.org/) -->
<svg
   xmlns:dc="http://purl.org/dc/elements/1.1/"
   xmlns:cc="http://creativecommons.org/ns#"
   xmlns:rdf="http://www.w3.org/1999/02/22-rdf-syntax-ns#"
   xmlns:svg="http://www.w3.org/2000/svg"
   xmlns="http://www.w3.org/2000/svg"
   xmlns:sodipodi="http://sodipodi.sourceforge.net/DTD/sodipodi-0.dtd"
   xmlns:inkscape="http://www.inkscape.org/namespaces/inkscape"
   width="1400"
   height="905.71429"
   id="svg2"
   sodipodi:version="0.32"
   inkscape:version="0.46"
   sodipodi:docname="formes de tomates.svg"
   inkscape:output_extension="org.inkscape.output.svg.inkscape"
   version="1.0">
  <defs
     id="defs4" />
  <sodipodi:namedview
     id="base"
     pagecolor="#ffffff"
     bordercolor="#666666"
     borderopacity="1.0"
     inkscape:pageopacity="0.0"
     inkscape:pageshadow="2"
     inkscape:zoom="0.7"
     inkscape:cx="464.42688"
     inkscape:cy="313.08087"
     inkscape:document-units="px"
     inkscape:current-layer="layer2"
     showgrid="false"
     inkscape:window-width="1152"
     inkscape:window-height="814"
     inkscape:window-x="-8"
     inkscape:window-y="-8" />
  <metadata
     id="metadata7">
    <rdf:RDF>
      <cc:Work
         rdf:about="">
        <dc:format>image/svg+xml</dc:format>
        <dc:type
           rdf:resource="http://purl.org/dc/dcmitype/StillImage" />
      </cc:Work>
    </rdf:RDF>
  </metadata>
  <g
     inkscape:groupmode="layer"
     id="layer2"
     transform="translate(340,-1089.505)">
    <g
       id="g3796"
       transform="translate(7.6432824,4.6587924)">
      <g
         transform="matrix(0.9287461,0,0,0.9287461,234.96926,856.63401)"
         id="g3521">
        <g
           id="g2565"
           transform="matrix(0.8961775,0,0,0.8961775,908.15722,38.542861)"
           style="fill:#457d00;fill-opacity:1">
          <g
             id="g2629"
             transform="translate(-33.475511,-86.079886)"
             style="fill:#457d00;fill-opacity:1">
            <path
               style="fill:#457d00;fill-opacity:1;fill-rule:evenodd;stroke:#000000;stroke-width:1px;stroke-linecap:butt;stroke-linejoin:miter;stroke-opacity:1"
               d="M -177.85714,459.50504 C -185.58444,456.6479 -161.65302,390.21932 -154.14286,390.21932 L -147,394.50504 C -158.71197,417.67113 -172.78803,439.42824 -169.28571,458.79075 L -177.85714,459.50504 z"
               id="path2567"
               sodipodi:nodetypes="ccccc" />
            <path
               style="fill:#457d00;fill-opacity:1;fill-rule:evenodd;stroke:#000000;stroke-width:1px;stroke-linecap:butt;stroke-linejoin:miter;stroke-opacity:1"
               d="M -171.42857,460.21932 C -173.50206,457.39373 -168.16063,442.76964 -163.27231,433.13287 C -160.97634,426.94783 -156.76604,424.098 -151.49644,420.87398 C -140.81432,414.42459 -133.32028,412.49065 -122.85714,410.21932 C -130.28181,416.15844 -138.81142,420.0295 -146.32316,425.88921 C -158.21457,433.42767 -156.6572,444.28157 -155.71429,456.6479 L -171.42857,460.21932 z"
               id="path2569"
               sodipodi:nodetypes="ccccccc" />
            <path
               style="fill:#457d00;fill-opacity:1;fill-rule:evenodd;stroke:#000000;stroke-width:1px;stroke-linecap:butt;stroke-linejoin:miter;stroke-opacity:1"
               d="M -202.14286,455.93361 C -205.49371,448.29633 -210.75401,442.59308 -218.38771,439.77312 C -228.53971,436.12097 -240.97268,433.84083 -252.14286,430.93361 C -244.73293,431.08319 -237.75223,428.6574 -230.12576,430.10623 C -218.21619,432.7765 -207.72104,438.52233 -197.50084,445.08283 C -191.79802,449.15554 -188.05718,457.08051 -185,461.29075 C -193.64872,463.23977 -198.7152,460.62958 -202.14286,455.93361 z"
               id="path2571"
               sodipodi:nodetypes="ccccccc" />
            <path
               style="fill:#457d00;fill-opacity:1;fill-rule:evenodd;stroke:#000000;stroke-width:1px;stroke-linecap:butt;stroke-linejoin:miter;stroke-opacity:1"
               d="M -191.42857,458.79075 C -191.81264,457.6991 -195.21728,447.77355 -197.81693,438.95458 C -200.65538,428.23164 -198.91271,424.49678 -209.54526,420.07777 C -215.72688,417.68883 -222.82488,416.52171 -229.28571,414.50504 C -209.88572,413.67714 -198.54779,410.71367 -186.57822,426.93101 C -181.57354,434.0296 -176.66356,442.74774 -177.14286,445.21932 C -177.6868,448.02422 -177.14286,461.6479 -177.14286,461.6479 C -181.94321,460.86854 -187.47454,463.37857 -191.42857,458.79075 z"
               id="path2573"
               sodipodi:nodetypes="cccccscc" />
            <path
               style="fill:#457d00;fill-opacity:1;fill-rule:evenodd;stroke:#000000;stroke-width:1px;stroke-linecap:butt;stroke-linejoin:miter;stroke-opacity:1"
               d="M -177.48777,429.15017 C -177.55141,416.90641 -181.09357,399.20524 -182.14286,399.50504 C -178.29972,405.88844 -173.89912,411.15691 -170.71779,418.86393 C -166.33239,432.41761 -169.50383,446.93359 -165.89286,460.93361 C -170.23705,462.00644 -174.89724,463.12414 -179.28571,460.93361 C -184.9936,449.78219 -177.68988,440.23103 -177.48777,429.15017 z"
               id="path2575"
               sodipodi:nodetypes="cccccc" />
            <path
               style="fill:#457d00;fill-opacity:1;fill-rule:evenodd;stroke:#000000;stroke-width:1px;stroke-linecap:butt;stroke-linejoin:miter;stroke-opacity:1"
               d="M -140.95644,446.53444 C -132.36347,442.46547 -122.30004,439.86695 -111.42857,438.07647 C -125.35533,438.48506 -141.50254,437.18711 -153.91289,444.79754 C -155.70232,445.98869 -157.34599,447.42278 -158.92681,448.96161 C -162.98695,452.66771 -165.97566,455.459 -166.42857,460.93361 C -162.79185,460.59928 -158.97553,461.42765 -156.08354,459.66389 C -150.76561,456.42058 -146.87225,449.51524 -140.95644,446.53444 z"
               id="path2577"
               sodipodi:nodetypes="cccccsc" />
          </g>
        </g>
        <path
           style="fill:#c01e05;fill-opacity:1;fill-rule:evenodd;stroke:#000000;stroke-width:1px;stroke-linecap:butt;stroke-linejoin:miter;stroke-opacity:1"
           d="M 633.26069,477.68268 C 633.90959,498.59034 647.26434,526.96838 660.26019,547.89677 C 676.48716,574.02853 705.50556,594.44176 735.88543,593.65341 C 783.72552,592.41198 809.69474,542.50167 818.81827,500.46297 C 825.54946,469.44752 818.66015,439.80383 807.61177,416.73131 C 795.19622,390.80372 769.12315,373.55544 744.28227,369.69772 C 738.91784,371.26932 739.58149,371.92723 734.12881,373.53918 C 727.51595,375.49411 727.34193,377.25317 705.71226,374.74211 C 700.40817,375.17985 699.2219,372.49156 695.64671,371.04506 C 652.1482,384.94732 631.98727,436.65294 633.26069,477.68268 z"
           id="path2579"
           sodipodi:nodetypes="csssscsccs" />
      </g>
      <g
         transform="matrix(0.9256552,0,0,0.9256552,222.02069,908.35067)"
         id="g3532">
        <g
           id="g2581"
           transform="matrix(0.7689272,0,0,0.7689272,880.29407,413.84903)"
           style="fill:#457d00;fill-opacity:1">
          <path
             sodipodi:nodetypes="ccccc"
             id="path2583"
             d="M -177.85714,459.50504 C -185.58444,456.6479 -161.65302,390.21932 -154.14286,390.21932 L -147,394.50504 C -158.71197,417.67113 -172.78803,439.42824 -169.28571,458.79075 L -177.85714,459.50504 z"
             style="fill:#457d00;fill-opacity:1;fill-rule:evenodd;stroke:#000000;stroke-width:1px;stroke-linecap:butt;stroke-linejoin:miter;stroke-opacity:1" />
          <path
             sodipodi:nodetypes="ccccccc"
             id="path2585"
             d="M -171.42857,460.21932 C -173.50206,457.39373 -168.16063,442.76964 -163.27231,433.13287 C -160.97634,426.94783 -156.76604,424.098 -151.49644,420.87398 C -140.81432,414.42459 -133.32028,412.49065 -122.85714,410.21932 C -130.28181,416.15844 -138.81142,420.0295 -146.32316,425.88921 C -158.21457,433.42767 -156.6572,444.28157 -155.71429,456.6479 L -171.42857,460.21932 z"
             style="fill:#457d00;fill-opacity:1;fill-rule:evenodd;stroke:#000000;stroke-width:1px;stroke-linecap:butt;stroke-linejoin:miter;stroke-opacity:1" />
          <path
             sodipodi:nodetypes="ccccccc"
             id="path2587"
             d="M -202.14286,455.93361 C -205.49371,448.29633 -210.75401,442.59308 -218.38771,439.77312 C -228.53971,436.12097 -240.97268,433.84083 -252.14286,430.93361 C -244.73293,431.08319 -237.75223,428.6574 -230.12576,430.10623 C -218.21619,432.7765 -207.72104,438.52233 -197.50084,445.08283 C -191.79802,449.15554 -188.05718,457.08051 -185,461.29075 C -193.64872,463.23977 -198.7152,460.62958 -202.14286,455.93361 z"
             style="fill:#457d00;fill-opacity:1;fill-rule:evenodd;stroke:#000000;stroke-width:1px;stroke-linecap:butt;stroke-linejoin:miter;stroke-opacity:1" />
          <path
             sodipodi:nodetypes="cccccscc"
             id="path2589"
             d="M -191.42857,458.79075 C -191.81264,457.6991 -195.21728,447.77355 -197.81693,438.95458 C -200.65538,428.23164 -198.91271,424.49678 -209.54526,420.07777 C -215.72688,417.68883 -222.82488,416.52171 -229.28571,414.50504 C -209.88572,413.67714 -198.54779,410.71367 -186.57822,426.93101 C -181.57354,434.0296 -176.66356,442.74774 -177.14286,445.21932 C -177.6868,448.02422 -177.14286,461.6479 -177.14286,461.6479 C -181.94321,460.86854 -187.47454,463.37857 -191.42857,458.79075 z"
             style="fill:#457d00;fill-opacity:1;fill-rule:evenodd;stroke:#000000;stroke-width:1px;stroke-linecap:butt;stroke-linejoin:miter;stroke-opacity:1" />
          <path
             sodipodi:nodetypes="cccccc"
             id="path2591"
             d="M -177.48777,429.15017 C -177.55141,416.90641 -181.09357,399.20524 -182.14286,399.50504 C -178.29972,405.88844 -173.89912,411.15691 -170.71779,418.86393 C -166.33239,432.41761 -169.50383,446.93359 -165.89286,460.93361 C -170.23705,462.00644 -174.89724,463.12414 -179.28571,460.93361 C -184.9936,449.78219 -177.68988,440.23103 -177.48777,429.15017 z"
             style="fill:#457d00;fill-opacity:1;fill-rule:evenodd;stroke:#000000;stroke-width:1px;stroke-linecap:butt;stroke-linejoin:miter;stroke-opacity:1" />
          <path
             sodipodi:nodetypes="cccccsc"
             id="path2593"
             d="M -140.95644,446.53444 C -132.36347,442.46547 -122.30004,439.86695 -111.42857,438.07647 C -125.35533,438.48506 -141.50254,437.18711 -153.91289,444.79754 C -155.70232,445.98869 -157.34599,447.42278 -158.92681,448.96161 C -162.98695,452.66771 -165.97566,455.459 -166.42857,460.93361 C -162.79185,460.59928 -158.97553,461.42765 -156.08354,459.66389 C -150.76561,456.42058 -146.87225,449.51524 -140.95644,446.53444 z"
             style="fill:#457d00;fill-opacity:1;fill-rule:evenodd;stroke:#000000;stroke-width:1px;stroke-linecap:butt;stroke-linejoin:miter;stroke-opacity:1" />
        </g>
        <path
           style="fill:#c01e05;fill-opacity:1;fill-rule:evenodd;stroke:#000000;stroke-width:1px;stroke-linecap:butt;stroke-linejoin:miter;stroke-opacity:1"
           d="M 687.85714,911.64789 C 694.39787,940.45667 709.56543,971.71477 738.46045,983.29078 C 747.4841,986.51848 760.06443,983.49046 775.00001,965.93361 C 800.42291,936.04886 798.34562,891.78284 800,863.79074 C 800.8836,848.84024 787.53378,799.83533 778.57143,786.64789 C 769.28802,772.98803 764.35863,767.84593 756.64447,769.58005 C 751.78068,768.25657 740.08612,766.1729 735.15035,770.16871 C 730.71567,768.57252 728.36746,773.64601 719.28572,777.36218 C 689.48225,801.69647 681.22311,873.78347 687.85714,911.64789 z"
           id="path2595"
           sodipodi:nodetypes="ccssscccc" />
      </g>
      <g
         transform="translate(85.291593,806.63187)"
         id="g3510">
        <g
           id="g2549"
           transform="matrix(0.8961775,0,0,0.8961775,629.58579,5.6857174)"
           style="fill:#457d00;fill-opacity:1">
          <path
             sodipodi:nodetypes="ccccc"
             id="path2551"
             d="M -177.85714,459.50504 C -185.58444,456.6479 -161.65302,390.21932 -154.14286,390.21932 L -147,394.50504 C -158.71197,417.67113 -172.78803,439.42824 -169.28571,458.79075 L -177.85714,459.50504 z"
             style="fill:#457d00;fill-opacity:1;fill-rule:evenodd;stroke:#000000;stroke-width:1px;stroke-linecap:butt;stroke-linejoin:miter;stroke-opacity:1" />
          <path
             sodipodi:nodetypes="ccccccc"
             id="path2553"
             d="M -171.42857,460.21932 C -173.50206,457.39373 -168.16063,442.76964 -163.27231,433.13287 C -160.97634,426.94783 -156.76604,424.098 -151.49644,420.87398 C -140.81432,414.42459 -133.32028,412.49065 -122.85714,410.21932 C -130.28181,416.15844 -138.81142,420.0295 -146.32316,425.88921 C -158.21457,433.42767 -156.6572,444.28157 -155.71429,456.6479 L -171.42857,460.21932 z"
             style="fill:#457d00;fill-opacity:1;fill-rule:evenodd;stroke:#000000;stroke-width:1px;stroke-linecap:butt;stroke-linejoin:miter;stroke-opacity:1" />
          <path
             sodipodi:nodetypes="ccccccc"
             id="path2555"
             d="M -202.14286,455.93361 C -205.49371,448.29633 -210.75401,442.59308 -218.38771,439.77312 C -228.53971,436.12097 -240.97268,433.84083 -252.14286,430.93361 C -244.73293,431.08319 -237.75223,428.6574 -230.12576,430.10623 C -218.21619,432.7765 -207.72104,438.52233 -197.50084,445.08283 C -191.79802,449.15554 -188.05718,457.08051 -185,461.29075 C -193.64872,463.23977 -198.7152,460.62958 -202.14286,455.93361 z"
             style="fill:#457d00;fill-opacity:1;fill-rule:evenodd;stroke:#000000;stroke-width:1px;stroke-linecap:butt;stroke-linejoin:miter;stroke-opacity:1" />
          <path
             sodipodi:nodetypes="cccccscc"
             id="path2557"
             d="M -191.42857,458.79075 C -191.81264,457.6991 -195.21728,447.77355 -197.81693,438.95458 C -200.65538,428.23164 -198.91271,424.49678 -209.54526,420.07777 C -215.72688,417.68883 -222.82488,416.52171 -229.28571,414.50504 C -209.88572,413.67714 -198.54779,410.71367 -186.57822,426.93101 C -181.57354,434.0296 -176.66356,442.74774 -177.14286,445.21932 C -177.6868,448.02422 -177.14286,461.6479 -177.14286,461.6479 C -181.94321,460.86854 -187.47454,463.37857 -191.42857,458.79075 z"
             style="fill:#457d00;fill-opacity:1;fill-rule:evenodd;stroke:#000000;stroke-width:1px;stroke-linecap:butt;stroke-linejoin:miter;stroke-opacity:1" />
          <path
             sodipodi:nodetypes="cccccc"
             id="path2559"
             d="M -177.48777,429.15017 C -177.55141,416.90641 -181.09357,399.20524 -182.14286,399.50504 C -178.29972,405.88844 -173.89912,411.15691 -170.71779,418.86393 C -166.33239,432.41761 -169.50383,446.93359 -165.89286,460.93361 C -170.23705,462.00644 -174.89724,463.12414 -179.28571,460.93361 C -184.9936,449.78219 -177.68988,440.23103 -177.48777,429.15017 z"
             style="fill:#457d00;fill-opacity:1;fill-rule:evenodd;stroke:#000000;stroke-width:1px;stroke-linecap:butt;stroke-linejoin:miter;stroke-opacity:1" />
          <path
             sodipodi:nodetypes="cccccsc"
             id="path2561"
             d="M -140.95644,446.53444 C -132.36347,442.46547 -122.30004,439.86695 -111.42857,438.07647 C -125.35533,438.48506 -141.50254,437.18711 -153.91289,444.79754 C -155.70232,445.98869 -157.34599,447.42278 -158.92681,448.96161 C -162.98695,452.66771 -165.97566,455.459 -166.42857,460.93361 C -162.79185,460.59928 -158.97553,461.42765 -156.08354,459.66389 C -150.76561,456.42058 -146.87225,449.51524 -140.95644,446.53444 z"
             style="fill:#457d00;fill-opacity:1;fill-rule:evenodd;stroke:#000000;stroke-width:1px;stroke-linecap:butt;stroke-linejoin:miter;stroke-opacity:1" />
        </g>
        <g
           id="g3507">
          <path
             sodipodi:nodetypes="cscscccss"
             id="path2563"
             d="M 497.70925,597.26555 C 547.20114,585.04622 567.86207,546.70338 565.66968,495.88284 C 563.98413,456.81107 537.67987,426.06354 498.69381,417.71913 C 493.32938,419.29073 492.67847,416.91192 487.02512,417.51998 C 476.11452,418.6935 466.69116,419.41369 455.07304,418.72291 C 449.76895,419.16065 448.58268,416.47236 445.00749,415.02586 C 440.57281,413.42967 436.89718,413.56722 427.17332,415.37233 C 397.87927,420.05193 369.70503,465.03002 370.37636,497.65804 C 371.87261,570.37847 429.98013,613.98757 497.70925,597.26555 z"
             style="fill:#c01e05;fill-opacity:1;fill-rule:evenodd;stroke:#000000;stroke-width:1px;stroke-linecap:butt;stroke-linejoin:miter;stroke-opacity:1" />
        </g>
      </g>
      <g
         transform="matrix(0.9179031,0,0,0.9179031,102.82609,910.75633)"
         id="g3542">
        <g
           id="g2597"
           transform="matrix(0.7493503,0,0,0.7493503,635.34809,403.62141)"
           style="fill:#457d00;fill-opacity:1">
          <path
             sodipodi:nodetypes="ccccc"
             id="path2599"
             d="M -177.85714,459.50504 C -185.58444,456.6479 -161.65302,390.21932 -154.14286,390.21932 L -147,394.50504 C -158.71197,417.67113 -172.78803,439.42824 -169.28571,458.79075 L -177.85714,459.50504 z"
             style="fill:#457d00;fill-opacity:1;fill-rule:evenodd;stroke:#000000;stroke-width:1px;stroke-linecap:butt;stroke-linejoin:miter;stroke-opacity:1" />
          <path
             sodipodi:nodetypes="ccccccc"
             id="path2601"
             d="M -171.42857,460.21932 C -173.50206,457.39373 -168.16063,442.76964 -163.27231,433.13287 C -160.97634,426.94783 -156.76604,424.098 -151.49644,420.87398 C -140.81432,414.42459 -133.32028,412.49065 -122.85714,410.21932 C -130.28181,416.15844 -138.81142,420.0295 -146.32316,425.88921 C -158.21457,433.42767 -156.6572,444.28157 -155.71429,456.6479 L -171.42857,460.21932 z"
             style="fill:#457d00;fill-opacity:1;fill-rule:evenodd;stroke:#000000;stroke-width:1px;stroke-linecap:butt;stroke-linejoin:miter;stroke-opacity:1" />
          <path
             sodipodi:nodetypes="ccccccc"
             id="path2603"
             d="M -202.14286,455.93361 C -205.49371,448.29633 -210.75401,442.59308 -218.38771,439.77312 C -228.53971,436.12097 -240.97268,433.84083 -252.14286,430.93361 C -244.73293,431.08319 -237.75223,428.6574 -230.12576,430.10623 C -218.21619,432.7765 -207.72104,438.52233 -197.50084,445.08283 C -191.79802,449.15554 -188.05718,457.08051 -185,461.29075 C -193.64872,463.23977 -198.7152,460.62958 -202.14286,455.93361 z"
             style="fill:#457d00;fill-opacity:1;fill-rule:evenodd;stroke:#000000;stroke-width:1px;stroke-linecap:butt;stroke-linejoin:miter;stroke-opacity:1" />
          <path
             sodipodi:nodetypes="cccccscc"
             id="path2605"
             d="M -191.42857,458.79075 C -191.81264,457.6991 -195.21728,447.77355 -197.81693,438.95458 C -200.65538,428.23164 -198.91271,424.49678 -209.54526,420.07777 C -215.72688,417.68883 -222.82488,416.52171 -229.28571,414.50504 C -209.88572,413.67714 -198.54779,410.71367 -186.57822,426.93101 C -181.57354,434.0296 -176.66356,442.74774 -177.14286,445.21932 C -177.6868,448.02422 -177.14286,461.6479 -177.14286,461.6479 C -181.94321,460.86854 -187.47454,463.37857 -191.42857,458.79075 z"
             style="fill:#457d00;fill-opacity:1;fill-rule:evenodd;stroke:#000000;stroke-width:1px;stroke-linecap:butt;stroke-linejoin:miter;stroke-opacity:1" />
          <path
             sodipodi:nodetypes="cccccc"
             id="path2607"
             d="M -177.48777,429.15017 C -177.55141,416.90641 -181.09357,399.20524 -182.14286,399.50504 C -178.29972,405.88844 -173.89912,411.15691 -170.71779,418.86393 C -166.33239,432.41761 -169.50383,446.93359 -165.89286,460.93361 C -170.23705,462.00644 -174.89724,463.12414 -179.28571,460.93361 C -184.9936,449.78219 -177.68988,440.23103 -177.48777,429.15017 z"
             style="fill:#457d00;fill-opacity:1;fill-rule:evenodd;stroke:#000000;stroke-width:1px;stroke-linecap:butt;stroke-linejoin:miter;stroke-opacity:1" />
          <path
             sodipodi:nodetypes="cccccsc"
             id="path2609"
             d="M -140.95644,446.53444 C -132.36347,442.46547 -122.30004,439.86695 -111.42857,438.07647 C -125.35533,438.48506 -141.50254,437.18711 -153.91289,444.79754 C -155.70232,445.98869 -157.34599,447.42278 -158.92681,448.96161 C -162.98695,452.66771 -165.97566,455.459 -166.42857,460.93361 C -162.79185,460.59928 -158.97553,461.42765 -156.08354,459.66389 C -150.76561,456.42058 -146.87225,449.51524 -140.95644,446.53444 z"
             style="fill:#457d00;fill-opacity:1;fill-rule:evenodd;stroke:#000000;stroke-width:1px;stroke-linecap:butt;stroke-linejoin:miter;stroke-opacity:1" />
        </g>
        <path
           style="fill:#c01e05;fill-opacity:1;fill-rule:evenodd;stroke:#000000;stroke-width:1px;stroke-linecap:butt;stroke-linejoin:miter;stroke-opacity:1"
           d="M 465.18658,980.3696 C 479.74044,987.84698 498.69438,993.7515 514.32891,989.19934 C 543.24037,980.78147 556.91106,950.12945 555.47893,922.66393 C 554.29845,900.02466 546.73586,885.3796 538.00345,864.02986 C 532.66817,850.98573 527.41254,833.66999 527.6531,819.99267 C 527.91393,805.16261 527.80558,790.43534 526.14694,775.64833 C 524.7785,763.44842 527.26846,758.41114 516.12272,752.80569 C 495.76963,742.56963 479.98897,742.39713 468.99645,765.26806 C 464.12234,775.40908 462.93469,787.4963 462.41924,798.96434 C 461.94321,809.55543 462.90621,823.51057 460.62231,838.06179 C 457.63679,857.08318 444.81282,871.4958 437.84501,888.8708 C 426.6821,916.70677 429.14914,935.25523 436.6064,953.57414 C 442.19901,967.31247 452.45453,973.82822 465.18658,980.3696 z"
           id="path2611"
           sodipodi:nodetypes="cssssssssssss" />
      </g>
      <g
         transform="translate(26.315107,800.39406)"
         id="g3497">
        <g
           id="g2533"
           transform="matrix(0.8961775,0,0,0.8961775,332.44293,37.114289)"
           style="fill:#457d00;fill-opacity:1">
          <path
             sodipodi:nodetypes="ccccc"
             id="path2535"
             d="M -177.85714,459.50504 C -185.58444,456.6479 -161.65302,390.21932 -154.14286,390.21932 L -147,394.50504 C -158.71197,417.67113 -172.78803,439.42824 -169.28571,458.79075 L -177.85714,459.50504 z"
             style="fill:#457d00;fill-opacity:1;fill-rule:evenodd;stroke:#000000;stroke-width:1px;stroke-linecap:butt;stroke-linejoin:miter;stroke-opacity:1" />
          <path
             sodipodi:nodetypes="ccccccc"
             id="path2537"
             d="M -171.42857,460.21932 C -173.50206,457.39373 -168.16063,442.76964 -163.27231,433.13287 C -160.97634,426.94783 -156.76604,424.098 -151.49644,420.87398 C -140.81432,414.42459 -133.32028,412.49065 -122.85714,410.21932 C -130.28181,416.15844 -138.81142,420.0295 -146.32316,425.88921 C -158.21457,433.42767 -156.6572,444.28157 -155.71429,456.6479 L -171.42857,460.21932 z"
             style="fill:#457d00;fill-opacity:1;fill-rule:evenodd;stroke:#000000;stroke-width:1px;stroke-linecap:butt;stroke-linejoin:miter;stroke-opacity:1" />
          <path
             sodipodi:nodetypes="ccccccc"
             id="path2539"
             d="M -202.14286,455.93361 C -205.49371,448.29633 -210.75401,442.59308 -218.38771,439.77312 C -228.53971,436.12097 -240.97268,433.84083 -252.14286,430.93361 C -244.73293,431.08319 -237.75223,428.6574 -230.12576,430.10623 C -218.21619,432.7765 -207.72104,438.52233 -197.50084,445.08283 C -191.79802,449.15554 -188.05718,457.08051 -185,461.29075 C -193.64872,463.23977 -198.7152,460.62958 -202.14286,455.93361 z"
             style="fill:#457d00;fill-opacity:1;fill-rule:evenodd;stroke:#000000;stroke-width:1px;stroke-linecap:butt;stroke-linejoin:miter;stroke-opacity:1" />
          <path
             sodipodi:nodetypes="cccccscc"
             id="path2541"
             d="M -191.42857,458.79075 C -191.81264,457.6991 -195.21728,447.77355 -197.81693,438.95458 C -200.65538,428.23164 -198.91271,424.49678 -209.54526,420.07777 C -215.72688,417.68883 -222.82488,416.52171 -229.28571,414.50504 C -209.88572,413.67714 -198.54779,410.71367 -186.57822,426.93101 C -181.57354,434.0296 -176.66356,442.74774 -177.14286,445.21932 C -177.6868,448.02422 -177.14286,461.6479 -177.14286,461.6479 C -181.94321,460.86854 -187.47454,463.37857 -191.42857,458.79075 z"
             style="fill:#457d00;fill-opacity:1;fill-rule:evenodd;stroke:#000000;stroke-width:1px;stroke-linecap:butt;stroke-linejoin:miter;stroke-opacity:1" />
          <path
             sodipodi:nodetypes="cccccc"
             id="path2543"
             d="M -177.48777,429.15017 C -177.55141,416.90641 -181.09357,399.20524 -182.14286,399.50504 C -178.29972,405.88844 -173.89912,411.15691 -170.71779,418.86393 C -166.33239,432.41761 -169.50383,446.93359 -165.89286,460.93361 C -170.23705,462.00644 -174.89724,463.12414 -179.28571,460.93361 C -184.9936,449.78219 -177.68988,440.23103 -177.48777,429.15017 z"
             style="fill:#457d00;fill-opacity:1;fill-rule:evenodd;stroke:#000000;stroke-width:1px;stroke-linecap:butt;stroke-linejoin:miter;stroke-opacity:1" />
          <path
             sodipodi:nodetypes="cccccsc"
             id="path2545"
             d="M -140.95644,446.53444 C -132.36347,442.46547 -122.30004,439.86695 -111.42857,438.07647 C -125.35533,438.48506 -141.50254,437.18711 -153.91289,444.79754 C -155.70232,445.98869 -157.34599,447.42278 -158.92681,448.96161 C -162.98695,452.66771 -165.97566,455.459 -166.42857,460.93361 C -162.79185,460.59928 -158.97553,461.42765 -156.08354,459.66389 C -150.76561,456.42058 -146.87225,449.51524 -140.95644,446.53444 z"
             style="fill:#457d00;fill-opacity:1;fill-rule:evenodd;stroke:#000000;stroke-width:1px;stroke-linecap:butt;stroke-linejoin:miter;stroke-opacity:1" />
        </g>
        <path
           style="fill:#c01e05;fill-opacity:1;fill-rule:evenodd;stroke:#000000;stroke-width:1px;stroke-linecap:butt;stroke-linejoin:miter;stroke-opacity:1"
           d="M 273.12897,534.37059 C 279.5703,495.40438 270.12994,473.11525 233.54363,450.88711 C 225.23803,438.72867 190.85804,441.46494 192.31083,449.58633 C 181.40023,450.75985 175.5483,451.48004 163.93018,450.78926 C 158.62609,451.227 157.43982,448.53871 153.86463,447.09221 C 149.42995,445.49602 145.24924,445.63358 135.52538,447.43869 C 119.9558,451.01764 102.98863,458.80854 87.812899,474.01252 C 60.321518,501.55508 61.706401,542.20783 83.5614,568.20843 C 108.03123,597.31986 145.51679,611.47324 179.45398,607.3512 C 220.56589,602.35771 266.03863,577.26297 273.12897,534.37059 z"
           id="path2547"
           sodipodi:nodetypes="ccccccssss" />
      </g>
      <g
         transform="matrix(0.9276734,0,0,1,56.831887,831.82305)"
         id="g3552">
        <g
           id="g2613"
           transform="matrix(0.8961775,0,0,0.8961775,313.8715,359.97144)"
           style="fill:#457d00;fill-opacity:1">
          <path
             sodipodi:nodetypes="ccccc"
             id="path2615"
             d="M -177.85714,459.50504 C -185.58444,456.6479 -161.65302,390.21932 -154.14286,390.21932 L -147,394.50504 C -158.71197,417.67113 -172.78803,439.42824 -169.28571,458.79075 L -177.85714,459.50504 z"
             style="fill:#457d00;fill-opacity:1;fill-rule:evenodd;stroke:#000000;stroke-width:1px;stroke-linecap:butt;stroke-linejoin:miter;stroke-opacity:1" />
          <path
             sodipodi:nodetypes="ccccccc"
             id="path2617"
             d="M -171.42857,460.21932 C -173.50206,457.39373 -168.16063,442.76964 -163.27231,433.13287 C -160.97634,426.94783 -156.76604,424.098 -151.49644,420.87398 C -140.81432,414.42459 -133.32028,412.49065 -122.85714,410.21932 C -130.28181,416.15844 -138.81142,420.0295 -146.32316,425.88921 C -158.21457,433.42767 -156.6572,444.28157 -155.71429,456.6479 L -171.42857,460.21932 z"
             style="fill:#457d00;fill-opacity:1;fill-rule:evenodd;stroke:#000000;stroke-width:1px;stroke-linecap:butt;stroke-linejoin:miter;stroke-opacity:1" />
          <path
             sodipodi:nodetypes="ccccccc"
             id="path2619"
             d="M -202.14286,455.93361 C -205.49371,448.29633 -210.75401,442.59308 -218.38771,439.77312 C -228.53971,436.12097 -240.97268,433.84083 -252.14286,430.93361 C -244.73293,431.08319 -237.75223,428.6574 -230.12576,430.10623 C -218.21619,432.7765 -207.72104,438.52233 -197.50084,445.08283 C -191.79802,449.15554 -188.05718,457.08051 -185,461.29075 C -193.64872,463.23977 -198.7152,460.62958 -202.14286,455.93361 z"
             style="fill:#457d00;fill-opacity:1;fill-rule:evenodd;stroke:#000000;stroke-width:1px;stroke-linecap:butt;stroke-linejoin:miter;stroke-opacity:1" />
          <path
             sodipodi:nodetypes="cccccscc"
             id="path2621"
             d="M -191.42857,458.79075 C -191.81264,457.6991 -195.21728,447.77355 -197.81693,438.95458 C -200.65538,428.23164 -198.91271,424.49678 -209.54526,420.07777 C -215.72688,417.68883 -222.82488,416.52171 -229.28571,414.50504 C -209.88572,413.67714 -198.54779,410.71367 -186.57822,426.93101 C -181.57354,434.0296 -176.66356,442.74774 -177.14286,445.21932 C -177.6868,448.02422 -177.14286,461.6479 -177.14286,461.6479 C -181.94321,460.86854 -187.47454,463.37857 -191.42857,458.79075 z"
             style="fill:#457d00;fill-opacity:1;fill-rule:evenodd;stroke:#000000;stroke-width:1px;stroke-linecap:butt;stroke-linejoin:miter;stroke-opacity:1" />
          <path
             sodipodi:nodetypes="cccccc"
             id="path2623"
             d="M -177.48777,429.15017 C -177.55141,416.90641 -181.09357,399.20524 -182.14286,399.50504 C -178.29972,405.88844 -173.89912,411.15691 -170.71779,418.86393 C -166.33239,432.41761 -169.50383,446.93359 -165.89286,460.93361 C -170.23705,462.00644 -174.89724,463.12414 -179.28571,460.93361 C -184.9936,449.78219 -177.68988,440.23103 -177.48777,429.15017 z"
             style="fill:#457d00;fill-opacity:1;fill-rule:evenodd;stroke:#000000;stroke-width:1px;stroke-linecap:butt;stroke-linejoin:miter;stroke-opacity:1" />
          <path
             sodipodi:nodetypes="cccccsc"
             id="path2625"
             d="M -140.95644,446.53444 C -132.36347,442.46547 -122.30004,439.86695 -111.42857,438.07647 C -125.35533,438.48506 -141.50254,437.18711 -153.91289,444.79754 C -155.70232,445.98869 -157.34599,447.42278 -158.92681,448.96161 C -162.98695,452.66771 -165.97566,455.459 -166.42857,460.93361 C -162.79185,460.59928 -158.97553,461.42765 -156.08354,459.66389 C -150.76561,456.42058 -146.87225,449.51524 -140.95644,446.53444 z"
             style="fill:#457d00;fill-opacity:1;fill-rule:evenodd;stroke:#000000;stroke-width:1px;stroke-linecap:butt;stroke-linejoin:miter;stroke-opacity:1" />
        </g>
        <path
           style="fill:#c01e05;fill-opacity:1;fill-rule:evenodd;stroke:#000000;stroke-width:1px;stroke-linecap:butt;stroke-linejoin:miter;stroke-opacity:1"
           d="M 161.38971,988.0598 C 181.22757,985.65465 200.84976,959.66546 204.94548,940.213 C 212.5755,903.97449 209.50562,867.26446 207.17601,830.7775 C 206.15643,814.80865 208.25904,796.5151 200.32426,782.55423 C 193.81728,771.76927 183.08468,770.94732 171.03965,771.51998 C 160.12905,772.6935 158.40544,773.41369 146.78732,772.72291 C 135.02439,770.69874 137.15033,766.5142 125.66757,774.29558 C 97.965288,788.29453 100.6463,812.95359 100.49676,840.16606 C 100.36072,864.92251 98.780557,890.09134 104.99317,914.16299 C 112.81833,944.48266 116.25941,966.74341 141.15477,979.32487 C 146.07752,981.8127 154.68998,988.87208 161.38971,988.0598 z"
           id="path2627"
           sodipodi:nodetypes="cssccccssss" />
      </g>
      <g
         transform="matrix(1.0645919,0,0,1,27.518644,807.32965)"
         id="g3477">
        <g
           id="g2489"
           transform="matrix(0.8961775,0,0,0.8961775,-16.128493,48.542861)"
           style="fill:#457d00;fill-opacity:1">
          <path
             sodipodi:nodetypes="ccccc"
             id="path2486"
             d="M -177.85714,459.50504 C -185.58444,456.6479 -161.65302,390.21932 -154.14286,390.21932 L -147,394.50504 C -158.71197,417.67113 -172.78803,439.42824 -169.28571,458.79075 L -177.85714,459.50504 z"
             style="fill:#457d00;fill-opacity:1;fill-rule:evenodd;stroke:#000000;stroke-width:1px;stroke-linecap:butt;stroke-linejoin:miter;stroke-opacity:1" />
          <path
             sodipodi:nodetypes="ccccccc"
             id="path2476"
             d="M -171.42857,460.21932 C -173.50206,457.39373 -168.16063,442.76964 -163.27231,433.13287 C -160.97634,426.94783 -156.76604,424.098 -151.49644,420.87398 C -140.81432,414.42459 -133.32028,412.49065 -122.85714,410.21932 C -130.28181,416.15844 -138.81142,420.0295 -146.32316,425.88921 C -158.21457,433.42767 -156.6572,444.28157 -155.71429,456.6479 L -171.42857,460.21932 z"
             style="fill:#457d00;fill-opacity:1;fill-rule:evenodd;stroke:#000000;stroke-width:1px;stroke-linecap:butt;stroke-linejoin:miter;stroke-opacity:1" />
          <path
             sodipodi:nodetypes="ccccccc"
             id="path2480"
             d="M -202.14286,455.93361 C -205.49371,448.29633 -210.75401,442.59308 -218.38771,439.77312 C -228.53971,436.12097 -240.97268,433.84083 -252.14286,430.93361 C -244.73293,431.08319 -237.75223,428.6574 -230.12576,430.10623 C -218.21619,432.7765 -207.72104,438.52233 -197.50084,445.08283 C -191.79802,449.15554 -188.05718,457.08051 -185,461.29075 C -193.64872,463.23977 -198.7152,460.62958 -202.14286,455.93361 z"
             style="fill:#457d00;fill-opacity:1;fill-rule:evenodd;stroke:#000000;stroke-width:1px;stroke-linecap:butt;stroke-linejoin:miter;stroke-opacity:1" />
          <path
             sodipodi:nodetypes="cccccscc"
             id="path2478"
             d="M -191.42857,458.79075 C -191.81264,457.6991 -195.21728,447.77355 -197.81693,438.95458 C -200.65538,428.23164 -198.91271,424.49678 -209.54526,420.07777 C -215.72688,417.68883 -222.82488,416.52171 -229.28571,414.50504 C -209.88572,413.67714 -198.54779,410.71367 -186.57822,426.93101 C -181.57354,434.0296 -176.66356,442.74774 -177.14286,445.21932 C -177.6868,448.02422 -177.14286,461.6479 -177.14286,461.6479 C -181.94321,460.86854 -187.47454,463.37857 -191.42857,458.79075 z"
             style="fill:#457d00;fill-opacity:1;fill-rule:evenodd;stroke:#000000;stroke-width:1px;stroke-linecap:butt;stroke-linejoin:miter;stroke-opacity:1" />
          <path
             sodipodi:nodetypes="cccccc"
             id="path2482"
             d="M -177.48777,429.15017 C -177.55141,416.90641 -181.09357,399.20524 -182.14286,399.50504 C -178.29972,405.88844 -173.89912,411.15691 -170.71779,418.86393 C -166.33239,432.41761 -169.50383,446.93359 -165.89286,460.93361 C -170.23705,462.00644 -174.89724,463.12414 -179.28571,460.93361 C -184.9936,449.78219 -177.68988,440.23103 -177.48777,429.15017 z"
             style="fill:#457d00;fill-opacity:1;fill-rule:evenodd;stroke:#000000;stroke-width:1px;stroke-linecap:butt;stroke-linejoin:miter;stroke-opacity:1" />
          <path
             sodipodi:nodetypes="cccccsc"
             id="path2484"
             d="M -140.95644,446.53444 C -132.36347,442.46547 -122.30004,439.86695 -111.42857,438.07647 C -125.35533,438.48506 -141.50254,437.18711 -153.91289,444.79754 C -155.70232,445.98869 -157.34599,447.42278 -158.92681,448.96161 C -162.98695,452.66771 -165.97566,455.459 -166.42857,460.93361 C -162.79185,460.59928 -158.97553,461.42765 -156.08354,459.66389 C -150.76561,456.42058 -146.87225,449.51524 -140.95644,446.53444 z"
             style="fill:#457d00;fill-opacity:1;fill-rule:evenodd;stroke:#000000;stroke-width:1px;stroke-linecap:butt;stroke-linejoin:miter;stroke-opacity:1" />
        </g>
        <path
           style="fill:#c01e05;fill-opacity:1;fill-rule:evenodd;stroke:#000000;stroke-width:1px;stroke-linecap:butt;stroke-linejoin:miter;stroke-opacity:1"
           d="M -281.42857,569.50504 C -265.73302,583.11394 -245.77258,588.19307 -226.42857,594.50504 C -184.77947,604.77843 -142.80044,602.15448 -102.85714,586.6479 C -65.786067,573.13098 -49.024009,543.90256 -51.428571,505.21932 C -53.095552,490.21948 -59.063411,477.37008 -72.142857,468.07647 C -92.363875,450.61332 -122.55448,452.44238 -147.67857,456.46932 C -153.043,458.04092 -152.17868,459.19764 -157.83203,459.8057 C -168.74263,460.97922 -178.16599,461.69941 -189.78411,461.00863 C -195.0882,461.44637 -196.27447,458.75808 -199.84966,457.31158 C -204.28434,455.71539 -210.99043,454.84279 -220.71429,456.6479 C -250.00833,461.3275 -279.70196,475.0489 -295.71429,500.93361 C -306.61562,522.04833 -297.25046,553.22902 -281.42857,569.50504 z"
           id="path2474"
           sodipodi:nodetypes="ccccccsccccc" />
      </g>
      <g
         transform="matrix(0.8821164,0,0,0.8821164,-28.19229,947.81592)"
         id="g3487">
        <g
           transform="matrix(0.8961775,0,0,0.8961775,11.014361,365.68572)"
           id="g2517"
           style="fill:#457d00;fill-opacity:1">
          <path
             style="fill:#457d00;fill-opacity:1;fill-rule:evenodd;stroke:#000000;stroke-width:1px;stroke-linecap:butt;stroke-linejoin:miter;stroke-opacity:1"
             d="M -177.85714,459.50504 C -185.58444,456.6479 -161.65302,390.21932 -154.14286,390.21932 L -147,394.50504 C -158.71197,417.67113 -172.78803,439.42824 -169.28571,458.79075 L -177.85714,459.50504 z"
             id="path2519"
             sodipodi:nodetypes="ccccc" />
          <path
             style="fill:#457d00;fill-opacity:1;fill-rule:evenodd;stroke:#000000;stroke-width:1px;stroke-linecap:butt;stroke-linejoin:miter;stroke-opacity:1"
             d="M -171.42857,460.21932 C -173.50206,457.39373 -168.16063,442.76964 -163.27231,433.13287 C -160.97634,426.94783 -156.76604,424.098 -151.49644,420.87398 C -140.81432,414.42459 -133.32028,412.49065 -122.85714,410.21932 C -130.28181,416.15844 -138.81142,420.0295 -146.32316,425.88921 C -158.21457,433.42767 -156.6572,444.28157 -155.71429,456.6479 L -171.42857,460.21932 z"
             id="path2521"
             sodipodi:nodetypes="ccccccc" />
          <path
             style="fill:#457d00;fill-opacity:1;fill-rule:evenodd;stroke:#000000;stroke-width:1px;stroke-linecap:butt;stroke-linejoin:miter;stroke-opacity:1"
             d="M -202.14286,455.93361 C -205.49371,448.29633 -210.75401,442.59308 -218.38771,439.77312 C -228.53971,436.12097 -240.97268,433.84083 -252.14286,430.93361 C -244.73293,431.08319 -237.75223,428.6574 -230.12576,430.10623 C -218.21619,432.7765 -207.72104,438.52233 -197.50084,445.08283 C -191.79802,449.15554 -188.05718,457.08051 -185,461.29075 C -193.64872,463.23977 -198.7152,460.62958 -202.14286,455.93361 z"
             id="path2523"
             sodipodi:nodetypes="ccccccc" />
          <path
             style="fill:#457d00;fill-opacity:1;fill-rule:evenodd;stroke:#000000;stroke-width:1px;stroke-linecap:butt;stroke-linejoin:miter;stroke-opacity:1"
             d="M -191.42857,458.79075 C -191.81264,457.6991 -195.21728,447.77355 -197.81693,438.95458 C -200.65538,428.23164 -198.91271,424.49678 -209.54526,420.07777 C -215.72688,417.68883 -222.82488,416.52171 -229.28571,414.50504 C -209.88572,413.67714 -198.54779,410.71367 -186.57822,426.93101 C -181.57354,434.0296 -176.66356,442.74774 -177.14286,445.21932 C -177.6868,448.02422 -177.14286,461.6479 -177.14286,461.6479 C -181.94321,460.86854 -187.47454,463.37857 -191.42857,458.79075 z"
             id="path2525"
             sodipodi:nodetypes="cccccscc" />
          <path
             style="fill:#457d00;fill-opacity:1;fill-rule:evenodd;stroke:#000000;stroke-width:1px;stroke-linecap:butt;stroke-linejoin:miter;stroke-opacity:1"
             d="M -177.48777,429.15017 C -177.55141,416.90641 -181.09357,399.20524 -182.14286,399.50504 C -178.29972,405.88844 -173.89912,411.15691 -170.71779,418.86393 C -166.33239,432.41761 -169.50383,446.93359 -165.89286,460.93361 C -170.23705,462.00644 -174.89724,463.12414 -179.28571,460.93361 C -184.9936,449.78219 -177.68988,440.23103 -177.48777,429.15017 z"
             id="path2527"
             sodipodi:nodetypes="cccccc" />
          <path
             style="fill:#457d00;fill-opacity:1;fill-rule:evenodd;stroke:#000000;stroke-width:1px;stroke-linecap:butt;stroke-linejoin:miter;stroke-opacity:1"
             d="M -140.95644,446.53444 C -132.36347,442.46547 -122.30004,439.86695 -111.42857,438.07647 C -125.35533,438.48506 -141.50254,437.18711 -153.91289,444.79754 C -155.70232,445.98869 -157.34599,447.42278 -158.92681,448.96161 C -162.98695,452.66771 -165.97566,455.459 -166.42857,460.93361 C -162.79185,460.59928 -158.97553,461.42765 -156.08354,459.66389 C -150.76561,456.42058 -146.87225,449.51524 -140.95644,446.53444 z"
             id="path2529"
             sodipodi:nodetypes="cccccsc" />
        </g>
        <path
           sodipodi:nodetypes="ccscsccccc"
           id="path2531"
           d="M -177.44432,973.61669 C -166.40492,981.86813 -155.09177,987.82008 -145.00623,988.65313 C -106.53884,971.49849 -69.792243,937.53148 -58.256213,896.45366 C -41.091409,835.33275 -33.056898,764.15626 -119.96428,771.89789 C -125.32871,773.46949 -124.46439,774.62621 -130.11774,775.23427 C -141.02834,776.40779 -150.4517,777.12798 -162.06982,776.4372 C -167.37391,776.87494 -168.56018,774.18665 -172.13537,772.74015 C -176.57005,771.14396 -183.27614,770.27136 -193,772.07647 C -224.66569,772.48014 -250.45127,808.68848 -250.89219,843.6526 C -248.29558,896.82293 -211.8018,933.18697 -177.44432,973.61669 z"
           style="fill:#c01e05;fill-opacity:1;fill-rule:evenodd;stroke:#000000;stroke-width:1px;stroke-linecap:butt;stroke-linejoin:miter;stroke-opacity:1" />
      </g>
      <path
         transform="translate(25.697554,17.0562)"
         style="font-size:56px;font-style:normal;font-variant:normal;font-weight:bold;font-stretch:normal;text-align:start;line-height:125%;writing-mode:lr-tb;text-anchor:start;fill:#000000;fill-opacity:1;stroke:none;stroke-width:1px;stroke-linecap:butt;stroke-linejoin:miter;stroke-opacity:1;font-family:Bitstream Vera Sans;-inkscape-font-specification:Bitstream Vera Sans Bold"
         inkscape:transform-center-x="25.253814"
         d="M -199.5,1465.128 L -190.20312,1465.128 L -190.20312,1438.7413 L -199.74609,1440.71 L -199.74609,1433.546 L -190.25781,1431.5772 L -180.25,1431.5772 L -180.25,1465.128 L -170.95312,1465.128 L -170.95312,1472.4014 L -199.5,1472.4014 L -199.5,1465.128 z"
         id="flowRoot3652" />
      <path
         transform="translate(383.67158,17.0562)"
         style="font-size:56px;font-style:normal;font-variant:normal;font-weight:bold;font-stretch:normal;text-align:start;line-height:125%;writing-mode:lr-tb;text-anchor:start;fill:#000000;fill-opacity:1;stroke:none;stroke-width:1px;stroke-linecap:butt;stroke-linejoin:miter;stroke-opacity:1;font-family:Bitstream Vera Sans;-inkscape-font-specification:Bitstream Vera Sans Bold"
         inkscape:transform-center-x="25.253814"
         d="M -189.92969,1464.6631 L -171.96484,1464.6631 L -171.96484,1472.4014 L -201.63281,1472.4014 L -201.63281,1464.6631 L -186.73047,1451.5108 C -185.39976,1450.3077 -184.41539,1449.1319 -183.77734,1447.9835 C -183.13935,1446.835 -182.82034,1445.641 -182.82031,1444.4014 C -182.82034,1442.4874 -183.46291,1440.947 -184.74805,1439.7803 C -186.03322,1438.6137 -187.74221,1438.0304 -189.875,1438.0303 C -191.51564,1438.0304 -193.31121,1438.3813 -195.26172,1439.0831 C -197.21225,1439.7849 -199.29949,1440.8285 -201.52344,1442.2139 L -201.52344,1433.2452 C -199.15365,1432.4614 -196.81121,1431.8644 -194.49609,1431.4542 C -192.181,1431.044 -189.91147,1430.839 -187.6875,1430.8389 C -182.80211,1430.839 -179.00589,1431.9145 -176.29883,1434.0655 C -173.59183,1436.2166 -172.23832,1439.2153 -172.23828,1443.0616 C -172.23832,1445.2856 -172.81253,1447.3591 -173.96094,1449.2823 C -175.10941,1451.2055 -177.52477,1453.7803 -181.20703,1457.0069 L -189.92969,1464.6631 z"
         id="flowRoot3660" />
      <path
         transform="translate(740.3331,17.0562)"
         style="font-size:56px;font-style:normal;font-variant:normal;font-weight:bold;font-stretch:normal;text-align:start;line-height:125%;writing-mode:lr-tb;text-anchor:start;fill:#000000;fill-opacity:1;stroke:none;stroke-width:1px;stroke-linecap:butt;stroke-linejoin:miter;stroke-opacity:1;font-family:Bitstream Vera Sans;-inkscape-font-specification:Bitstream Vera Sans Bold"
         inkscape:transform-center-x="25.253814"
         d="M -179.97656,1450.3897 C -177.22399,1451.1007 -175.13219,1452.3357 -173.70117,1454.0948 C -172.27022,1455.8539 -171.55472,1458.0915 -171.55469,1460.8077 C -171.55472,1464.8546 -173.1042,1467.9307 -176.20312,1470.0362 C -179.30211,1472.1417 -183.82294,1473.1944 -189.76562,1473.1944 C -191.86199,1473.1944 -193.9629,1473.0258 -196.06836,1472.6885 C -198.17384,1472.3513 -200.25652,1471.8454 -202.31641,1471.171 L -202.31641,1463.0499 C -200.34766,1464.0342 -198.39259,1464.7771 -196.45117,1465.2784 C -194.50978,1465.7797 -192.60027,1466.0303 -190.72266,1466.0303 C -187.93361,1466.0303 -185.79624,1465.5473 -184.31055,1464.5811 C -182.82489,1463.615 -182.08206,1462.2296 -182.08203,1460.4249 C -182.08206,1458.5655 -182.84312,1457.1573 -184.36523,1456.2003 C -185.88739,1455.2432 -188.13413,1454.7647 -191.10547,1454.7647 L -195.31641,1454.7647 L -195.31641,1447.9835 L -190.88672,1447.9835 C -188.24351,1447.9835 -186.27476,1447.5688 -184.98047,1446.7393 C -183.68622,1445.9099 -183.03909,1444.6475 -183.03906,1442.9522 C -183.03909,1441.3845 -183.66799,1440.1723 -184.92578,1439.3155 C -186.18361,1438.4587 -187.96096,1438.0304 -190.25781,1438.0303 C -191.95314,1438.0304 -193.66668,1438.2218 -195.39844,1438.6045 C -197.13022,1438.9874 -198.85287,1439.5525 -200.56641,1440.2999 L -200.56641,1432.5889 C -198.48829,1432.0056 -196.4284,1431.5681 -194.38672,1431.2764 C -192.34507,1430.9848 -190.33986,1430.839 -188.37109,1430.8389 C -183.06643,1430.839 -179.09703,1431.7094 -176.46289,1433.4503 C -173.82881,1435.1912 -172.51175,1437.8116 -172.51172,1441.3116 C -172.51175,1443.6996 -173.14066,1445.6547 -174.39844,1447.1768 C -175.65628,1448.699 -177.51565,1449.7699 -179.97656,1450.3897 L -179.97656,1450.3897 z"
         id="flowRoot3668" />
      <path
         transform="translate(1096.5298,17.0562)"
         style="font-size:56px;font-style:normal;font-variant:normal;font-weight:bold;font-stretch:normal;text-align:start;line-height:125%;writing-mode:lr-tb;text-anchor:start;fill:#000000;fill-opacity:1;stroke:none;stroke-width:1px;stroke-linecap:butt;stroke-linejoin:miter;stroke-opacity:1;font-family:Bitstream Vera Sans;-inkscape-font-specification:Bitstream Vera Sans Bold"
         inkscape:transform-center-x="25.253814"
         d="M -185.44531,1440.2452 L -196.98438,1457.335 L -185.44531,1457.335 L -185.44531,1440.2452 z M -187.19531,1431.5772 L -175.49219,1431.5772 L -175.49219,1457.335 L -169.66797,1457.335 L -169.66797,1464.9639 L -175.49219,1464.9639 L -175.49219,1472.4014 L -185.44531,1472.4014 L -185.44531,1464.9639 L -203.54688,1464.9639 L -203.54688,1455.9405 L -187.19531,1431.5772 z"
         id="flowRoot3676" />
      <path
         transform="translate(1096.5298,457.0562)"
         style="font-size:56px;font-style:normal;font-variant:normal;font-weight:bold;font-stretch:normal;text-align:start;line-height:125%;writing-mode:lr-tb;text-anchor:start;fill:#000000;fill-opacity:1;stroke:none;stroke-width:1px;stroke-linecap:butt;stroke-linejoin:miter;stroke-opacity:1;font-family:Bitstream Vera Sans;-inkscape-font-specification:Bitstream Vera Sans Bold"
         inkscape:transform-center-x="25.253814"
         d="M -186.56641,1454.1358 C -188.53517,1454.1358 -190.04819,1454.6736 -191.10547,1455.7491 C -192.16277,1456.8246 -192.69142,1458.365 -192.69141,1460.3702 C -192.69142,1462.3754 -192.16277,1463.9112 -191.10547,1464.9776 C -190.04819,1466.044 -188.53517,1466.5772 -186.56641,1466.5772 C -184.61591,1466.5772 -183.12112,1466.044 -182.08203,1464.9776 C -181.04299,1463.9112 -180.52346,1462.3754 -180.52344,1460.3702 C -180.52346,1458.3467 -181.04299,1456.8018 -182.08203,1455.7354 C -183.12112,1454.669 -184.61591,1454.1358 -186.56641,1454.1358 L -186.56641,1454.1358 z M -194.25,1450.6631 C -196.72918,1449.9158 -198.59766,1448.7673 -199.85547,1447.2178 C -201.11329,1445.6684 -201.74219,1443.7361 -201.74219,1441.421 C -201.74219,1437.9757 -200.45704,1435.3507 -197.88672,1433.546 C -195.31642,1431.7413 -191.54298,1430.839 -186.56641,1430.8389 C -181.62633,1430.839 -177.87112,1431.7367 -175.30078,1433.5323 C -172.7305,1435.3279 -171.44535,1437.9574 -171.44531,1441.421 C -171.44535,1443.7361 -172.07881,1445.6684 -173.3457,1447.2178 C -174.61266,1448.7673 -176.48571,1449.9158 -178.96484,1450.6631 C -176.19404,1451.4288 -174.10225,1452.6729 -172.68945,1454.3956 C -171.27673,1456.1182 -170.57035,1458.2921 -170.57031,1460.917 C -170.57035,1464.9639 -171.91475,1468.0219 -174.60352,1470.0909 C -177.29235,1472.1599 -181.27997,1473.1944 -186.56641,1473.1944 C -191.87111,1473.1944 -195.87696,1472.1599 -198.58398,1470.0909 C -201.29102,1468.0219 -202.64453,1464.9639 -202.64453,1460.917 C -202.64453,1458.2921 -201.93816,1456.1182 -200.52539,1454.3956 C -199.11264,1452.6729 -197.02084,1451.4288 -194.25,1450.6631 L -194.25,1450.6631 z M -191.78906,1442.4874 C -191.78908,1444.1098 -191.33791,1445.3585 -190.43555,1446.2335 C -189.53322,1447.1085 -188.24351,1447.546 -186.56641,1447.546 C -184.9258,1447.546 -183.65888,1447.1085 -182.76562,1446.2335 C -181.87242,1445.3585 -181.42581,1444.1098 -181.42578,1442.4874 C -181.42581,1440.865 -181.87242,1439.6209 -182.76562,1438.7549 C -183.65888,1437.8891 -184.9258,1437.4561 -186.56641,1437.4561 C -188.24351,1437.4561 -189.53322,1437.8936 -190.43555,1438.7686 C -191.33791,1439.6436 -191.78908,1440.8832 -191.78906,1442.4874 L -191.78906,1442.4874 z"
         id="flowRoot3684" />
      <path
         transform="translate(740.3331,457.0562)"
         style="font-size:56px;font-style:normal;font-variant:normal;font-weight:bold;font-stretch:normal;text-align:start;line-height:125%;writing-mode:lr-tb;text-anchor:start;fill:#000000;fill-opacity:1;stroke:none;stroke-width:1px;stroke-linecap:butt;stroke-linejoin:miter;stroke-opacity:1;font-family:Bitstream Vera Sans;-inkscape-font-specification:Bitstream Vera Sans Bold"
         inkscape:transform-center-x="25.253814"
         d="M -202.31641,1431.5772 L -171.55469,1431.5772 L -171.55469,1437.5108 L -187.46875,1472.4014 L -197.72266,1472.4014 L -182.65625,1439.3155 L -202.31641,1439.3155 L -202.31641,1431.5772 z"
         id="flowRoot3692" />
      <path
         transform="translate(383.22041,457.0562)"
         style="font-size:56px;font-style:normal;font-variant:normal;font-weight:bold;font-stretch:normal;text-align:start;line-height:125%;writing-mode:lr-tb;text-anchor:start;fill:#000000;fill-opacity:1;stroke:none;stroke-width:1px;stroke-linecap:butt;stroke-linejoin:miter;stroke-opacity:1;font-family:Bitstream Vera Sans;-inkscape-font-specification:Bitstream Vera Sans Bold"
         inkscape:transform-center-x="25.253814"
         d="M -185.80078,1452.2491 C -187.64195,1452.2491 -189.0228,1452.8461 -189.94336,1454.0401 C -190.86395,1455.2341 -191.32423,1457.0251 -191.32422,1459.4131 C -191.32423,1461.8012 -190.86395,1463.5922 -189.94336,1464.7862 C -189.0228,1465.9802 -187.64195,1466.5772 -185.80078,1466.5772 C -183.94143,1466.5772 -182.55146,1465.9802 -181.63086,1464.7862 C -180.71031,1463.5922 -180.25003,1461.8012 -180.25,1459.4131 C -180.25003,1457.0251 -180.71031,1455.2341 -181.63086,1454.0401 C -182.55146,1452.8461 -183.94143,1452.2491 -185.80078,1452.2491 L -185.80078,1452.2491 z M -172.78516,1432.6436 L -172.78516,1440.1905 C -174.51696,1439.3702 -176.14847,1438.7641 -177.67969,1438.3721 C -179.21096,1437.9802 -180.70575,1437.7843 -182.16406,1437.7842 C -185.2995,1437.7843 -187.74221,1438.6547 -189.49219,1440.3956 C -191.2422,1442.1365 -192.26303,1444.7205 -192.55469,1448.1475 C -191.35158,1447.2543 -190.04819,1446.5844 -188.64453,1446.1378 C -187.2409,1445.6912 -185.70966,1445.4679 -184.05078,1445.4678 C -179.87633,1445.4679 -176.50849,1446.6892 -173.94727,1449.1319 C -171.3861,1451.5746 -170.1055,1454.7738 -170.10547,1458.7295 C -170.1055,1463.1046 -171.53649,1466.6091 -174.39844,1469.2432 C -177.26045,1471.8773 -181.09768,1473.1944 -185.91016,1473.1944 C -191.21486,1473.1944 -195.32097,1471.4034 -198.22852,1467.8213 C -201.13607,1464.2393 -202.58985,1459.1579 -202.58984,1452.5772 C -202.58985,1445.8324 -200.88998,1440.5323 -197.49023,1436.6768 C -194.09051,1432.8214 -189.4284,1430.8937 -183.50391,1430.8936 C -181.62633,1430.8937 -179.80341,1431.0395 -178.03516,1431.3311 C -176.26696,1431.6228 -174.51696,1432.0603 -172.78516,1432.6436 L -172.78516,1432.6436 z"
         id="flowRoot3700" />
      <path
         transform="translate(26.722945,457.0562)"
         style="font-size:56px;font-style:normal;font-variant:normal;font-weight:bold;font-stretch:normal;text-align:start;line-height:125%;writing-mode:lr-tb;text-anchor:start;fill:#000000;fill-opacity:1;stroke:none;stroke-width:1px;stroke-linecap:butt;stroke-linejoin:miter;stroke-opacity:1;font-family:Bitstream Vera Sans;-inkscape-font-specification:Bitstream Vera Sans Bold"
         inkscape:transform-center-x="25.253814"
         d="M -200.12891,1431.5772 L -173.96094,1431.5772 L -173.96094,1439.3155 L -191.73438,1439.3155 L -191.73438,1445.6319 C -190.93231,1445.4132 -190.12567,1445.2445 -189.31445,1445.126 C -188.50327,1445.0076 -187.66017,1444.9483 -186.78516,1444.9483 C -181.80862,1444.9483 -177.93492,1446.1925 -175.16406,1448.6807 C -172.39326,1451.169 -171.00785,1454.6371 -171.00781,1459.085 C -171.00785,1463.4965 -172.51631,1466.9509 -175.5332,1469.4483 C -178.55016,1471.9457 -182.7383,1473.1944 -188.09766,1473.1944 C -190.41278,1473.1944 -192.70509,1472.9711 -194.97461,1472.5245 C -197.24415,1472.0779 -199.50001,1471.3988 -201.74219,1470.4874 L -201.74219,1462.2022 C -199.51824,1463.4783 -197.40821,1464.4353 -195.41211,1465.0733 C -193.41603,1465.7113 -191.53387,1466.0303 -189.76562,1466.0303 C -187.21356,1466.0303 -185.2038,1465.406 -183.73633,1464.1573 C -182.2689,1462.9086 -181.53518,1461.2178 -181.53516,1459.085 C -181.53518,1456.934 -182.2689,1455.2387 -183.73633,1453.9991 C -185.2038,1452.7595 -187.21356,1452.1397 -189.76562,1452.1397 C -191.27866,1452.1397 -192.89194,1452.3357 -194.60547,1452.7276 C -196.31902,1453.1195 -198.16016,1453.7257 -200.12891,1454.546 L -200.12891,1431.5772 z"
         id="flowRoot3644" />
    </g>
    <rect
       style="fill:none;fill-opacity:1"
       id="rect3904"
       width="1400"
       height="905.71429"
       x="-340"
       y="1089.505" />
  </g>
</svg>
