<?xml version="1.0" encoding="UTF-8"?>
<!DOCTYPE svg PUBLIC "-//W3C//DTD SVG 1.1//EN" "http://www.w3.org/Graphics/SVG/1.1/DTD/svg11.dtd">
<svg version="1.1" xmlns="http://www.w3.org/2000/svg" xmlns:xlink="http://www.w3.org/1999/xlink" x="0" y="0" width="47.5" height="47.5" viewBox="0, 0, 47.5, 47.5">
  <g id="g12">
    <path d="M29.368,7.93 C28.509,7.93 27.678,8.013 26.879,8.151 C25.854,8.02 23.454,7.863 22.389,7.863 C11.799,7.863 2.531,11.834 2.531,25.735 C2.531,37.03 11.343,46.187 23.751,46.187 C36.16,46.187 46.218,37.03 46.218,25.735 C46.218,11.674 34.488,7.93 29.368,7.93" fill="#C4E440" id="path24"/>
    <path d="M11.799,1.364 C13.845,3.409 15.261,4.197 15.891,7.502 C16.264,9.457 18.724,9.389 18.724,9.389 C18.724,9.389 13.845,11.594 11.799,13.639 C11.799,13.639 17.936,11.594 19.983,11.594 C19.983,11.594 24.074,13.639 24.074,15.685 C24.074,15.685 24.074,11.594 22.029,11.594 C22.029,11.594 28.165,11.594 28.165,15.685 C28.165,15.685 28.165,9.547 26.12,9.547 C26.12,9.547 32.259,7.502 34.304,9.547 C34.304,9.547 32.197,7.397 28.165,7.502 C28.165,7.502 30.212,5.455 34.304,5.455 C34.304,5.455 27.694,3.567 25.649,7.659 C25.649,7.659 23.916,5.928 27.379,2.465 C27.379,2.465 22.029,3.409 22.029,7.502 C22.029,7.502 20.089,7.453 18.724,5.928 C16.047,2.938 11.799,1.364 11.799,1.364" fill="#77B255" id="path28"/>
  </g>
</svg>
