<?xml version="1.0" encoding="UTF-8"?>
<!DOCTYPE svg PUBLIC "-//W3C//DTD SVG 1.1//EN" "http://www.w3.org/Graphics/SVG/1.1/DTD/svg11.dtd">
<svg version="1.1" xmlns="http://www.w3.org/2000/svg" xmlns:xlink="http://www.w3.org/1999/xlink" x="0" y="0" width="47.5" height="47.5" viewBox="0, 0, 47.5, 47.5">
  <g id="g12">
    <path d="M46.14,27.125 C45.424,38.967 34.634,45.687 23.751,46.186 C13.043,46.101 3.149,38.411 2.605,27.25 C10.037,27.251 17.468,27.218 24.9,27.187 C25.281,27.186 25.281,27.186 25.662,27.184 C32.488,27.156 39.314,27.127 46.14,27.125 z" fill="#BC1C30"/>
    <path d="M22.389,7.863 C23.454,7.863 25.854,8.02 26.879,8.151 C27.678,8.013 28.509,7.93 29.368,7.93 C38.879,8.277 45.145,14.87 46.149,24.125 C39.316,24.127 32.483,24.156 25.65,24.184 C25.269,24.186 25.269,24.186 24.887,24.188 C17.456,24.22 10.026,24.247 2.595,24.25 C2.876,12.251 11.785,8.121 22.389,7.863 z" fill="#BC1C30"/>
    <path d="M4.125,24.25 L44.5,24.25 L44.5,27.125 L4.125,27.125 L4.125,24.25 z" fill="#090606"/>
    <path d="M11.799,1.364 C13.845,3.409 15.261,4.197 15.891,7.502 C16.264,9.457 18.724,9.389 18.724,9.389 C18.724,9.389 13.845,11.594 11.799,13.639 C11.799,13.639 17.936,11.594 19.983,11.594 C19.983,11.594 24.074,13.639 24.074,15.685 C24.074,15.685 24.074,11.594 22.029,11.594 C22.029,11.594 28.165,11.594 28.165,15.685 C28.165,15.685 28.165,9.547 26.12,9.547 C26.12,9.547 32.259,7.502 34.304,9.547 C34.304,9.547 32.197,7.397 28.165,7.502 C28.165,7.502 30.212,5.455 34.304,5.455 C34.304,5.455 27.694,3.567 25.649,7.659 C25.649,7.659 23.916,5.928 27.379,2.465 C27.379,2.465 22.029,3.409 22.029,7.502 C22.029,7.502 20.089,7.453 18.724,5.928 C16.047,2.938 11.799,1.364 11.799,1.364" fill="#77B255" id="path28"/>
    <path d="M22.319,26.431 L23.25,24.819 L24.181,26.431 z" fill="#F1E8E9"/>
  </g>
</svg>
